<svg xmlns="http://www.w3.org/2000/svg" viewBox="0 0 18 18">
  <path fill="#4285F4" d="M17.64 9.205c0-.638-.057-1.252-.164-1.841H9v3.481h4.844a4.14 4.14 0 0 1-1.797 2.716v2.258h2.909C16.659 14.251 17.64 11.783 17.64 9.205Z"/>
  <path fill="#34A853" d="M9 18c2.43 0 4.468-.806 5.956-2.182l-2.909-2.258c-.806.54-1.835.859-3.047.859-2.344 0-4.328-1.585-5.037-3.714H.956v2.332A9 9 0 0 0 9 18Z"/>
  <path fill="#FBBC05" d="M3.963 10.705A5.42 5.42 0 0 1 3.681 9c0-.592.102-1.168.282-1.705V4.963H.956A9 9 0 0 0 0 9c0 1.452.347 2.827.956 4.037l3.007-2.332Z"/>
  <path fill="#EA4335" d="M9 3.58c1.321 0 2.507.454 3.441 1.346l2.581-2.581C13.464.892 11.43 0 9 0A9 9 0 0 0 .956 4.963l3.007 2.332C4.672 5.166 6.656 3.58 9 3.58Z"/>
</svg>
